<svg xmlns="http://www.w3.org/2000/svg" width="183.435" height="232.804" viewBox="0 0 183.435 232.804">
	<g id="ENATA_Logo_-_portrait" data-name="ENATA Logo - portrait" transform="translate(305.924 388.258)">
		<g id="Group_104" data-name="Group 104" transform="translate(-305.924 -388.258)">
			<g id="Group_102" data-name="Group 102">
				<path id="Path_127" data-name="Path 127" d="M160.385,155.769l-22.21-.009s4.649-19.319,9.56-28.63c5.071-9.611,9.569-13.323,17.67-28.973,14.988-28.97,28.37-74.654,6.6-98.156-8.2,21.706-16.08,38.518-42.876,62.3l5.022,9.05,21.439-18.085c6.348-5.356,10.366-1.956,6.026,14.391s-26.516,47.616-41.287,52.429c-17.315,5.653-21.033-11.913-21.151-16.417-.118-4.134-.073-6.139-.024-7.361.519-13.108,1.838-49.072,1.838-49.072l14.4-20.769L91.832,3.236l-.118-.112-.112.112L68.036,26.465,82.443,47.234S83.756,83.2,84.271,96.309c.055,1.225.1,3.224-.012,7.367-.124,4.495-3.84,22.061-21.154,16.417C48.338,115.271,26.152,84,21.812,67.657s-.321-19.75,6.029-14.394L49.281,71.348l5.025-9.05C27.514,38.518,19.623,21.706,11.425,0c-21.761,23.5-8.38,69.186,6.606,98.156,8.1,15.65,12.6,19.362,17.673,28.973,4.91,9.311,9.557,28.63,9.557,28.63l-22.219.009-3.573-18.1L5.4,129.289l5.944,46.233H172.1l5.938-46.233-14.073,8.38Zm-68.67,8.726h0a17.921,17.921,0,1,1,17.933-17.918,17.919,17.919,0,0,1-17.933,17.918" transform="translate(0)" fill="#fff"/>
			</g>
			<g id="Group_103" data-name="Group 103" transform="translate(9.523 195.275)">
				<path id="path4147-6" d="M3.14,64.386v37.529H28.07V97.978H8V84.922h0V80.885H8V68.323h19.68V64.386Zm9.344,16.535-1.3,3.937H26.757V80.921Z" transform="translate(-3.14 -64.386)" fill="#fff"/>
				<path id="path4149-0" d="M13.375,101.915V64.386h4.856L41.193,94.618V64.386h4.592v37.529H40.932L17.97,71.419v30.5Z" transform="translate(17.667 -64.386)" fill="#fff"/>
				<path id="path4151-2" d="M30.8,101.915H25.757L41.689,64.386h5.377l16.011,37.529H57.7L52.841,90.1H40.427l1.341-3.937h9.444L44.206,69.163,30.8,101.915Z" transform="translate(42.838 -64.386)" fill="#fff"/>
				<path id="path4153-4" d="M65.31,64.386v3.937H53.5v33.592H48.647V68.323H36.837V64.386Z" transform="translate(65.362 -64.386)" fill="#fff"/>
				<path id="path4155-1" d="M50.03,101.915H44.992L60.921,64.386H66.3l16.008,37.529h-5.38L72.073,90.1H59.662L61,86.168h9.447L63.441,69.163,50.03,101.915Z" transform="translate(81.94 -64.386)" fill="#fff"/>
			</g>
		</g>
	</g>
</svg>