<svg width="76" height="81.85" viewBox="0 0 208 224" fill="none" xmlns="http://www.w3.org/2000/svg">
<path d="M197.06 94.63L184 90.27V40C184 35.7565 182.314 31.6869 179.314 28.6863C176.313 25.6857 172.243 24 168 24H112V8C112 5.87827 111.157 3.84344 109.657 2.34315C108.157 0.842854 106.122 0 104 0C101.878 0 99.8435 0.842854 98.3432 2.34315C96.8429 3.84344 96 5.87827 96 8V24H40C35.7566 24 31.6869 25.6857 28.6863 28.6863C25.6857 31.6869 24 35.7565 24 40V90.27L10.94 94.63C7.75251 95.6926 4.9804 97.7317 3.01678 100.458C1.05316 103.185 -0.00231526 106.46 3.34623e-05 109.82V144.1C-0.00214709 144.841 0.102254 145.579 0.310033 146.29C16.03 201.38 86.43 220.35 100.38 223.59C102.762 224.137 105.238 224.137 107.62 223.59C121.57 220.35 191.97 201.38 207.69 146.29C207.898 145.579 208.002 144.841 208 144.1V109.82C208.002 106.46 206.947 103.185 204.983 100.458C203.02 97.7317 200.248 95.6926 197.06 94.63ZM40 40H168V84.93L106.53 64.41C104.888 63.8625 103.112 63.8625 101.47 64.41L40 84.93V40ZM192 142.94C186.22 161.94 171.45 178.11 148.05 191.06C134.166 198.598 119.357 204.292 104 208C88.6599 204.288 73.8687 198.594 60 191.06C36.56 178.11 21.78 161.93 16 142.94V109.81L96 83.11V152C96 154.122 96.8429 156.157 98.3432 157.657C99.8435 159.157 101.878 160 104 160C106.122 160 108.157 159.157 109.657 157.657C111.157 156.157 112 154.122 112 152V83.11L192 109.82V142.94Z" fill="black"/>
</svg>
