<svg width="27" height="27" viewBox="0 0 27 27" fill="none" xmlns="http://www.w3.org/2000/svg">
<g id="Group 119">
<circle id="Ellipse 10" cx="13.5" cy="13.5" r="13.5" fill="#1F2A36"/>
<g id="Group 118">
<path id="Vector" d="M21.9682 13.6855C21.3409 12.0629 20.2519 10.6596 18.8358 9.64916C17.4196 8.63871 15.7384 8.06537 14 8C12.2616 8.06537 10.5804 8.63871 9.16424 9.64916C7.7481 10.6596 6.65908 12.0629 6.03177 13.6855C5.98941 13.8027 5.98941 13.931 6.03177 14.0482C6.65908 15.6708 7.7481 17.0741 9.16424 18.0845C10.5804 19.0949 12.2616 19.6683 14 19.7337C15.7384 19.6683 17.4196 19.0949 18.8358 18.0845C20.2519 17.0741 21.3409 15.6708 21.9682 14.0482C22.0106 13.931 22.0106 13.8027 21.9682 13.6855ZM14 18.667C11.1733 18.667 8.1865 16.5709 7.1038 13.8668C8.1865 11.1628 11.1733 9.0667 14 9.0667C16.8267 9.0667 19.8135 11.1628 20.8962 13.8668C19.8135 16.5709 16.8267 18.667 14 18.667Z" fill="white"/>
<path id="Vector_2" d="M14 10.6667C13.3671 10.6667 12.7484 10.8544 12.2221 11.206C11.6959 11.5577 11.2857 12.0575 11.0435 12.6422C10.8013 13.2269 10.7379 13.8704 10.8614 14.4911C10.9849 15.1119 11.2896 15.6821 11.7372 16.1296C12.1847 16.5772 12.7549 16.8819 13.3757 17.0054C13.9964 17.1289 14.6399 17.0655 15.2246 16.8233C15.8094 16.5811 16.3091 16.1709 16.6608 15.6447C17.0124 15.1184 17.2001 14.4997 17.2001 13.8668C17.2001 13.0181 16.8629 12.2042 16.2628 11.604C15.6627 11.0039 14.8487 10.6667 14 10.6667ZM14 16.0002C13.578 16.0002 13.1656 15.8751 12.8147 15.6407C12.4639 15.4063 12.1905 15.0731 12.029 14.6832C11.8675 14.2934 11.8253 13.8645 11.9076 13.4506C11.9899 13.0368 12.1931 12.6566 12.4915 12.3583C12.7898 12.0599 13.1699 11.8567 13.5838 11.7744C13.9976 11.6921 14.4266 11.7344 14.8164 11.8958C15.2062 12.0573 15.5394 12.3307 15.7738 12.6816C16.0083 13.0324 16.1334 13.4449 16.1334 13.8668C16.1334 14.4326 15.9086 14.9753 15.5085 15.3754C15.1084 15.7754 14.5658 16.0002 14 16.0002Z" fill="white"/>
</g>
</g>
</svg>
